<?xml version="1.0" encoding="UTF-8"?>
<svg width="64px" height="64px" viewBox="0 0 64 64" version="1.1" xmlns="http://www.w3.org/2000/svg" xmlns:xlink="http://www.w3.org/1999/xlink">
    <title>ICON/SHOPPING-TOOLS/BUILD &amp; PRICE</title>
    <g id="Visaul-Design" stroke="none" stroke-width="1" fill="none" fill-rule="evenodd">
        <g id="1500-HP_Marquee-Offer-Lease" transform="translate(-344.000000, -778.000000)">
            <g id="Group" transform="translate(102.000000, 776.000000)">
                <g id="B&amp;P" transform="translate(229.000000, 2.000000)">
                    <g id="ICON/SHOPPING-TOOLS/BUILD-&amp;-PRICE" transform="translate(13.000000, 0.000000)">
                        <rect id="Rectangle-path" x="0" y="0" width="63.7398374" height="63.9800995"></rect>
                        <path d="M35.3489313,30.4667499 L35.3489313,30.4667499 C35.3713525,30.1366735 35.3713525,29.8054472 35.3489313,29.4753708 L36.4202808,28.3811129 C36.6297325,28.1707017 36.7114177,27.8640717 36.6345508,27.5767865 C36.4102247,26.7109766 36.0685498,25.8801871 35.6190977,25.1076916 C35.4638238,24.8491999 35.1837833,24.6926161 34.8831271,24.6961758 L33.4484502,24.6961758 C33.1819367,24.387595 32.8922925,24.0999412 32.5820545,23.8357336 L32.5820545,22.3393125 C32.5813559,22.0459743 32.4251936,21.7751811 32.1721468,21.6285124 C31.4283531,21.2124405 30.6325635,20.8979084 29.8058616,20.6932492 C29.5180293,20.6184456 29.2123346,20.7040905 29.0046785,20.9177124 L27.9799093,21.9652072 C27.5367154,21.92568 27.0909033,21.92568 26.6477094,21.9652072 L25.5577276,20.927065 C25.3442955,20.716753 25.0345864,20.6381285 24.7472283,20.7213071 C24.3445566,20.8406002 23.9494523,20.9842703 23.5640858,21.1515282 C23.1793428,21.3203401 22.8059152,21.5140346 22.4461557,21.7313914 C22.1908557,21.8837584 22.0376086,22.1628322 22.0455642,22.4608967 L22.0455642,24.0414915 C21.7444661,24.33024 21.4671807,24.6430189 21.2164327,24.9767548 L19.6699629,24.9767548 C19.3710869,24.9798757 19.0970169,25.1442483 18.9526245,25.4069758 C18.5377847,26.1633976 18.2245268,26.9716288 18.0210161,27.8106023 C17.9559362,28.0953626 18.0443298,28.3935304 18.2539182,28.5962234 L19.4650091,29.7559498 C19.4485321,30.0674848 19.4485321,30.379678 19.4650091,30.691213 L18.3936595,31.8789973 C18.1874702,32.0951857 18.1127718,32.4058646 18.1980217,32.6926763 C18.305432,33.0622644 18.4361203,33.4246292 18.5892972,33.7775817 C18.7942772,34.2440071 19.0340727,34.6942152 19.3066356,35.1243607 C19.4571995,35.3750082 19.7327783,35.5223207 20.0239741,35.5078186 L21.7381334,35.5078186 C21.9078711,35.6899419 22.088304,35.8617133 22.2784662,36.0222134 L22.2784662,37.6776293 C22.281575,37.9776778 22.4453052,38.2528231 22.7070061,38.397782 C23.5200761,38.8350459 24.3926627,39.1501573 25.2968773,39.3330452 L25.4738829,39.3330452 C25.7189323,39.3395141 25.9542727,39.2367907 26.1166926,39.0524662 L27.2253065,37.8646819 L27.8681163,37.8646819 L29.0419428,39.0150557 C29.2495398,39.2221333 29.5522098,39.3007787 29.8338099,39.2208136 C30.2857245,39.0981258 30.7279089,38.9418162 31.1566937,38.753182 C31.5872752,38.5639536 32.0043784,38.345209 32.4050489,38.0984977 C32.6524224,37.9441099 32.8009562,37.6707296 32.7963244,37.3783451 L32.7963244,35.7977502 C32.9825274,35.62953 33.1597783,35.4515837 33.3273412,35.2646502 L34.9110753,35.2646502 C35.2013608,35.2658936 35.4706575,35.1129305 35.6190977,34.862487 C36.0873815,34.0483726 36.4327327,33.169 36.6438668,32.2531026 C36.7124696,31.9653895 36.6238031,31.6627405 36.4109648,31.4581289 L35.3489313,30.4667499 Z M30.4100831,31.6803968 C29.8003708,33.2239878 28.2297515,34.1655129 26.5809347,33.975822 C24.9321179,33.786131 23.6163577,32.5125376 23.3731293,30.8708186 C23.1299009,29.2290996 24.0198713,27.6287387 25.5428649,26.9691606 C26.0023141,26.767977 26.4987148,26.6649539 27.0002805,26.6666667 C28.2141655,26.6666667 29.3493496,27.2675273 30.0319795,28.2712533 C30.7146094,29.2749792 30.8561859,30.551493 30.4100831,31.6803968 Z M57.7301424,46.4102585 C57.7155452,46.3699813 57.7155452,46.3258247 57.7301424,46.2855476 C57.8143637,45.5685491 57.8143637,44.8440888 57.7301424,44.1270902 C57.7155452,44.0868131 57.7155452,44.0426565 57.7301424,44.0023794 L60.2321126,40.3282053 C60.8613728,39.4101161 60.7489361,38.1716944 59.9647265,37.3831102 L56.2881671,33.6897498 C55.569442,32.9905582 54.4607814,32.8944091 53.6334048,33.4595143 L50.6730584,35.4932608 L47.4835238,32.433048 C47.4835238,32.2219988 47.4835238,32.0109496 47.5503704,31.7903073 C47.6311796,30.7686487 47.6311796,29.7421599 47.5503704,28.7205013 L50.7685534,25.3053421 C50.9915917,25.0706439 51.0814132,24.7385903 51.007291,24.4227729 C50.6840398,23.157274 50.2625716,21.9191665 49.7467564,20.7198194 C49.3495176,19.8117202 48.8999285,18.9276519 48.4002763,18.0721117 C48.2213235,17.7917926 47.9104598,17.6247568 47.5790189,17.6308271 L43.0716527,17.7363516 C42.1646404,16.6039151 41.1402608,15.5716384 40.0158112,14.6569525 L40.0158112,10.0042777 C40.0058527,9.67588475 39.829296,9.37545259 39.5478854,9.20804681 C37.6402425,8.10504918 35.5944708,7.26299825 33.4648509,6.70423628 C33.1233553,6.60533356 32.7554369,6.70512548 32.5099005,6.96325116 L29.3394649,10.3016652 L28.8046926,10.3016652 C27.482229,10.2151456 26.1544431,10.2633571 24.8416482,10.4455624 L21.4420245,7.07836888 C21.1903885,6.83047994 20.8232949,6.74197486 20.4870741,6.84813343 C18.4068847,7.43669328 16.4153288,8.30472022 14.5663811,9.42868912 C14.2836864,9.60614792 14.1135683,9.91885033 14.1175544,10.2536995 L14.2321485,15.1366097 C13.1715492,16.0726294 12.2113696,17.1175774 11.3672971,18.2543814 L6.50659919,18.2543814 C6.16894404,18.2617969 5.86030117,18.4478289 5.69489129,18.7436317 C4.64642157,20.6865546 3.85965704,22.760846 3.35526264,24.9120232 C3.28499577,25.235844 3.38609241,25.5731638 3.62264877,25.8041856 L7.30875758,29.3440556 C7.25116273,30.5645246 7.30229695,31.7877226 7.46154966,32.9990434 L3.97598045,36.6540312 C3.72921915,36.9068171 3.64111668,37.2755883 3.74679233,37.6133456 C4.02654213,38.5627291 4.36134688,39.4948568 4.74949033,40.4049505 C5.26659192,41.6022946 5.87644994,42.7570181 6.57344572,43.8584822 C6.74470203,44.1410626 7.05624128,44.3067489 7.38515362,44.2901737 L12.5705347,44.1270902 C13.252958,44.875467 13.9903417,45.5713261 14.7764703,46.2088025 L14.7764703,51.2835755 C14.7851864,51.6173532 14.9660355,51.9225682 15.2539455,52.0893996 C17.3475547,53.2559959 19.5995345,54.1091952 21.9385988,54.6219896 L22.1200394,54.6219896 C22.375246,54.6209253 22.6194102,54.5172858 22.7980542,54.3341953 L26.3027224,50.6408349 C27.2260815,50.6840637 28.1512897,50.664834 29.0720788,50.583276 L32.6244945,54.0847735 C32.8641348,54.3119506 33.2034284,54.3989746 33.522148,54.315009 C34.7113866,54.004613 35.8763667,53.6070303 37.0077172,53.1254591 L37.2751033,52.9911551 L40.9421131,56.6749223 C41.6604361,57.3956111 42.7877637,57.5003957 43.6255239,56.9243441 L47.4453258,54.3246021 C47.4854197,54.3099383 47.5293754,54.3099383 47.5694694,54.3246021 C48.2864282,54.4087293 49.0106986,54.4087293 49.7276574,54.3246021 C49.7677513,54.3099383 49.8117071,54.3099383 49.851801,54.3246021 L53.6334048,56.9627167 C54.4711651,57.5387682 55.5984927,57.4339837 56.3168157,56.7132949 L59.993375,53.0199346 C60.7775846,52.2313503 60.8900213,50.9929286 60.2607611,50.0748394 L57.7301424,46.4102585 Z M37.3980177,37.2162013 C36.7288589,37.9042469 36.5392236,38.9422086 36.9201463,39.8318135 C32.4836622,44.5360863 25.4165747,45.3572094 20.0653453,41.7901684 C14.7141159,38.2231275 12.5803085,31.2688403 14.976276,25.2043929 C17.3722435,19.1399455 23.6256732,15.6670321 29.8905266,16.921594 C36.15538,18.1761559 40.6737285,23.806161 40.6666667,30.3489946 C40.664366,31.7735372 40.4417833,33.1887029 40.0071958,34.5418112 L37.3980177,37.2162013 Z M59.108108,52.1543768 L55.5383413,55.7227115 C55.2376483,56.0277534 54.7609487,56.0721736 54.4090318,55.8279439 L50.2937512,53.0153691 C50.2505478,52.9992334 50.2029687,52.9992334 50.1597653,53.0153691 L49.949216,53.0153691 C49.1278324,53.1420892 48.2918609,53.1420892 47.4704772,53.0153691 L47.2982097,53.0153691 C47.2550063,52.9992334 47.2074272,52.9992334 47.1642238,53.0153691 L42.9149573,55.8853434 C42.6374239,56.0659497 42.2717354,56.0301901 42.0344786,55.7992441 L38.2063106,51.9726117 C37.9681125,51.7388232 37.9318204,51.3679863 38.1201768,51.0924863 L40.9913029,46.8449243 C41.007445,46.8017382 41.007445,46.7541782 40.9913029,46.7109922 L40.9913029,46.5579269 C40.8630026,45.7369907 40.8630026,44.9011186 40.9913029,44.0801824 L40.9913029,43.9079839 C41.007445,43.8647979 41.007445,43.8172379 40.9913029,43.7740518 L38.1775994,39.660422 C37.9386809,39.3106096 37.9829156,38.8403011 38.282874,38.541132 L41.9579153,34.8675649 C42.0880709,34.7393742 42.2632878,34.667255 42.4460067,34.6666667 C42.5864239,34.6671894 42.72333,34.7105812 42.8383939,34.7910322 L47.0876604,37.6610065 C47.1308638,37.6771422 47.1784429,37.6771422 47.2216463,37.6610065 L47.3939139,37.6610065 C48.2151675,37.5326029 49.0513991,37.5326029 49.8726527,37.6610065 L50.0449202,37.6610065 C50.0881236,37.6771422 50.1357027,37.6771422 50.1789061,37.6610065 L54.2941867,34.8484317 C54.6461036,34.604202 55.1228032,34.6486222 55.4234963,34.9536641 L58.993263,38.5219988 C59.2932213,38.8211679 59.3374561,39.2914764 59.0985376,39.6412888 L56.2848341,43.7549186 C56.2686919,43.7981047 56.2686919,43.8456647 56.2848341,43.8888508 L56.2848341,44.0610492 C56.4144458,44.8850915 56.4144458,45.724318 56.2848341,46.5483603 L56.2848341,46.7205588 C56.2686919,46.7637448 56.2686919,46.8113048 56.2848341,46.8544909 L59.0985376,50.9681207 C59.4078908,51.3016658 59.4120395,51.8158878 59.108108,52.1543768 Z M49,41.3333333 C46.6067661,41.3333333 44.6666667,43.2734328 44.6666667,45.6666667 C44.6666667,48.0599006 46.6067661,50 49,50 C51.3932339,50 53.3333333,48.0599006 53.3333333,45.6666667 L53.3333333,45.6666667 C53.3333333,43.2734328 51.3932339,41.3333333 49,41.3333333 Z M49,48.6666667 C47.3431458,48.6666667 46,47.3235209 46,45.6666667 C46,44.0098124 47.3431458,42.6666667 49,42.6666667 C50.6568542,42.6666667 52,44.0098124 52,45.6666667 L52,45.6666667 C51.9946881,47.3213157 50.654649,48.6613548 49,48.6666667 Z" id="Shape" fill="#E10A1D"></path>
                    </g>
                </g>
            </g>
        </g>
    </g>
</svg>