<?xml version="1.0" encoding="UTF-8"?>
<svg width="59px" height="49px" viewBox="0 0 59 49" version="1.1" xmlns="http://www.w3.org/2000/svg" xmlns:xlink="http://www.w3.org/1999/xlink">
    <title>ICON/SHOPPING-TOOLS/FIND-A-DEALER</title>
    <g id="Visaul-Design" stroke="none" stroke-width="1" fill="none" fill-rule="evenodd">
        <g id="1500-HP_Marquee-Offer-Lease" transform="translate(-1100.000000, -784.000000)">
            <g id="Group" transform="translate(102.000000, 776.000000)">
                <g id="FAD" transform="translate(980.000000, 3.000000)">
                    <g id="Group" transform="translate(16.000000, -0.000000)">
                        <g id="find-dealer" transform="translate(-0.128740, 0.000000)">
                            <rect id="Rectangle-path" x="0" y="0" width="64" height="63.2273924"></rect>
                            <path d="M60.5521535,47.3196435 L55.2137779,34.840137 C54.3290041,33.018616 52.7112717,31.6616643 50.7664457,31.1097208 L43.1965186,29.3630641 C42.908163,29.3014704 42.6155697,29.2618401 42.3212458,29.2445127 C44.0954475,25.7670061 45.4201847,22.3132098 45.4201847,19.7604039 C45.4201847,12.1217579 39.2420069,5.92941176 31.6208385,5.92941176 C23.99967,5.92941176 17.8214922,12.1217579 17.8214922,19.7604039 C17.8214922,22.297403 19.1620001,25.7670061 20.9756285,29.2445127 C20.7942657,29.2445127 20.6207882,29.2919333 20.455196,29.3314504 L12.8852689,31.0781071 C10.9404429,31.6300506 9.32271052,32.9870023 8.43793677,34.8085233 L3.09956111,47.2880299 C2.61195675,48.0486172 2.6663098,49.0369539 3.23436298,49.7392193 C3.80241615,50.4414848 4.75594058,50.6991539 5.59921411,50.3782687 L15.2429858,48.4577366 C16.9569335,48.2037665 18.7066775,48.3664024 20.3448012,48.9319421 L28.5061289,52.211863 L31.124062,53.2709219 C31.2938115,53.34026 31.4777861,53.3673771 31.6602652,53.3499561 L32.1097296,53.3499561 C32.2591644,53.3563355 32.4079314,53.3265139 32.5434233,53.2630184 L35.1613564,52.2039596 L43.3226841,48.9240386 C44.9600811,48.3551245 46.710647,48.1924123 48.4244995,48.4498332 L58.0682712,50.3703652 C58.8995943,50.6716744 59.8301206,50.4138782 60.3890379,49.7274121 C60.9479552,49.0409459 61.0133574,48.0755357 60.5521535,47.3196435 L60.5521535,47.3196435 Z M42.8732196,30.7698736 L46.6976099,31.6550571 L42.0373735,34.0260843 L41.2015274,31.3310167 L41.5800238,30.6434188 C42.01469,30.630585 42.4492247,30.6730759 42.8732196,30.7698736 L42.8732196,30.7698736 Z M28.3168807,41.1865865 L22.6157794,44.0634328 L19.713974,42.8779192 L22.8681103,32.6825022 C24.8394454,36.0730711 26.9211754,39.1791168 28.3168807,41.1865865 L28.3168807,41.1865865 Z M40.7599483,32.1371659 L41.5484824,34.3817384 L38.4889702,35.9624232 C39.2223069,34.7611027 40.0029556,33.4649412 40.7599483,32.1371659 L40.7599483,32.1371659 Z M31.6444945,14.8286673 C34.9542591,14.8286673 37.6373534,17.5179147 37.6373534,20.8352695 C37.6373534,24.1526244 34.9542591,26.8418718 31.6444945,26.8418718 C28.3347299,26.8418718 25.6516303,24.1526244 25.6516303,20.8352695 C25.6495424,19.2408506 26.2800069,17.7110167 27.404113,16.5828503 C28.528219,15.4546839 30.0537223,14.8207638 31.6444945,14.8207638 L31.6444945,14.8286673 Z M9.762674,35.3775698 C10.4653689,33.9792775 11.7118204,32.9329446 13.2085679,32.4849166 L20.778495,30.7382599 C21.0818284,30.6732179 21.3909,30.6387979 21.7010798,30.6355154 C21.9060987,31.0148797 22.113746,31.3916096 22.3240218,31.765705 L18.9806373,42.5696857 L8.54044619,38.2228025 L9.762674,35.3775698 Z M14.9591135,47.0351203 L5.31534184,48.9556523 C5.01090899,49.1575833 4.60329364,49.0950859 4.37301253,48.8111701 C4.14273141,48.5272543 4.16491568,48.1145502 4.42429834,47.8570764 L8.25657393,38.8945935 L18.7598478,43.2730904 L17.632244,46.9244723 C16.738121,46.8627216 15.8397896,46.9158421 14.9591135,47.0825408 L14.9591135,47.0351203 Z M31.9362521,51.8483055 L31.6287238,51.800885 L31.541985,51.800885 C30.6768383,51.5593561 29.8391109,51.2282644 29.042332,50.812957 L20.8810044,47.5725531 C20.0749836,47.2752123 19.2354124,47.0787747 18.3813514,46.9876997 L19.6666619,43.5497103 L31.9362521,48.5841914 L31.9362521,51.8720158 L31.9362521,51.8483055 Z M23.7276124,44.4032801 L28.8057718,41.7714399 C29.5154525,42.7672713 30.035885,43.3521247 30.035885,43.3521247 C30.4612247,43.9818538 31.1868565,44.3394911 31.9441374,44.2926321 L31.9441374,47.7780421 L23.7276124,44.4032801 Z M34.7670894,50.8445707 C33.7498804,51.2555487 33.5212056,51.6349131 32.7326715,51.7929816 L32.7326715,48.8687147 L36.099712,50.3387515 L34.7670894,50.8445707 Z M42.7864809,47.5804565 L37.0065262,49.9514838 L32.7326715,48.0862757 L32.7326715,44.1345637 C32.9795561,43.855591 33.2428712,43.591672 33.5212056,43.3442212 C33.5212056,43.3442212 35.4136873,40.7518982 37.7477482,37.1558402 L41.7692719,35.045626 L45.3413313,47.0035066 C44.4657897,47.0933456 43.6048769,47.2924734 42.7785956,47.5962634 L42.7864809,47.5804565 Z M48.7004864,47.0351203 C47.8284191,46.8845606 46.9409,46.8447298 46.0588973,46.9165689 L42.2739337,34.7215856 L47.7936722,31.8842564 L50.4431467,32.5007234 C51.938444,32.9469117 53.1846559,33.9901851 53.8890406,35.3854732 L54.6775747,37.2427779 L51.0030059,47.5172291 L48.7004864,47.0351203 Z M59.3062697,48.8291975 C59.0245201,49.023885 58.6665668,49.0709373 58.3442581,48.9556523 L51.7363426,47.6357805 L55.1112684,38.214899 L59.2353016,47.8649798 C59.4180426,48.1635681 59.4416581,48.5334068 59.2983843,48.8529078 L59.3062697,48.8291975 Z" id="Shape" fill="#E10A1D"></path>
                        </g>
                    </g>
                </g>
            </g>
        </g>
    </g>
</svg>