<?xml version="1.0" encoding="UTF-8"?>
<svg width="64px" height="64px" viewBox="0 0 64 64" version="1.1" xmlns="http://www.w3.org/2000/svg" xmlns:xlink="http://www.w3.org/1999/xlink">
    <title>ICON/SHOPPING-TOOLS/SEARCH-INVENTORY</title>
    <g id="Visaul-Design" stroke="none" stroke-width="1" fill="none" fill-rule="evenodd">
        <g id="1500-HP_Marquee-Offer-Lease" transform="translate(-586.000000, -778.000000)">
            <g id="Group" transform="translate(102.000000, 776.000000)">
                <g id="Inventory" transform="translate(458.500000, 2.000000)">
                    <g id="ICON/SHOPPING-TOOLS/SEARCH-INVENTORY" transform="translate(25.500000, 0.000000)">
                        <rect id="Rectangle-path" x="0" y="0" width="63.7398374" height="63.9800995"></rect>
                        <path d="M59.8404718,36.8918416 L59.1432928,31.0321666 C59.1628548,30.6798379 59.0564824,30.332049 58.843241,30.051135 L55.8691987,27.3289934 L55.1543696,24.8719954 C55.2099003,25.0369586 55.3313631,25.1714057 55.4897215,25.2431966 C56.1034089,25.2440306 56.7165243,25.2056541 57.3253322,25.128301 C57.8794256,25.0601617 58.4074909,24.8534857 58.8608911,24.5273087 C59.1326715,24.0252473 59.2260256,23.4455945 59.1256427,22.8834179 C58.9756168,21.9377388 56.9899803,21.5930521 56.9899803,21.5930521 C56.9899803,21.5930521 55.057294,21.3986134 54.5983913,21.3986134 C54.1394887,21.3986134 54.3424649,21.9996057 54.3424649,21.9996057 C54.1615435,22.468125 54.0428609,22.958416 53.9894628,23.4578959 C52.7266163,21.0193525 51.1899343,18.7331548 49.4092612,16.6437036 C48.5782433,15.7296746 47.5486447,15.0190763 46.3999187,14.5667449 C46.3999187,14.5667449 45.8262903,13.9304001 35.5274555,13.9304001 C25.2286206,13.9304001 23.9931134,14.5667449 23.9931134,14.5667449 C23.6179329,14.700336 23.2641646,14.8879025 22.9429323,15.1235466 C19.1743541,11.7462583 13.4390808,11.8644369 9.81240375,15.3941087 C6.18572675,18.9237804 5.90383323,24.6618234 9.16702721,28.530978 L2.85711553,35.0446741 C2.61601385,35.3027664 2.60224357,35.6995121 2.82486919,35.9737472 C3.04749482,36.2479823 3.43812472,36.3154605 3.73962066,36.1317631 L3.84552127,36.0257057 L10.1466079,29.5296858 C10.5321249,29.8555389 10.9422433,30.1510251 11.37329,30.413498 C11.3171254,30.6117801 11.2903643,30.8172525 11.2938646,31.0233285 L10.6055106,36.8918416 C10.4879226,37.0895223 10.4268641,37.3157737 10.4290095,37.5458627 C10.4290095,37.9347401 10.9849878,48.346048 11.2232642,49.5833851 C11.1952641,50.2968287 11.630314,50.9467987 12.2999204,51.1919234 L18.0185537,51.3333333 C18.320539,51.1334327 18.5665807,50.8596481 18.7333828,50.5379023 C18.8889296,50.0675096 18.9925074,49.5814546 19.0422596,49.0884503 L22.4222543,49.3447558 L22.8811569,48.8940116 L25.9522748,49.0089072 L26.4553027,49.6010614 L35.2274037,49.4773277 L43.9995047,49.6010614 L44.4937076,49.0089072 L47.5648255,48.8940116 L48.0237281,49.3447558 L51.4125478,49.0884503 C51.4539028,49.5804297 51.5485941,50.0664412 51.6949495,50.5379023 C51.861427,50.8598731 52.1075358,51.1337323 52.4097786,51.3333333 L58.1284119,51.1919234 C58.82165,50.9777706 59.2706537,50.3069533 59.2050681,49.5833851 C59.4433445,48.346048 59.9993227,37.9347401 59.9993227,37.5458627 C60.0068237,37.317437 59.9518978,37.0912963 59.8404718,36.8918416 L59.8404718,36.8918416 Z M35.3972947,15.3333333 C35.476565,15.3333333 44.557408,15.4873314 47.1292859,16.0434353 C49.1370561,18.1201586 50.7822713,20.5013809 52,23.0931227 C52,23.0931227 47.3759044,24 36.4806543,24 L34.3139352,24 C30.9845863,24 28.254168,23.8716683 26.0522177,23.7604475 C26.1684988,23.1710979 26.227477,22.5724341 26.2283737,21.9723593 C26.2312697,19.7840785 25.442549,17.6643711 24,15.9835472 C26.9418056,15.4445541 35.3180245,15.3333333 35.3972947,15.3333333 Z M50.559104,37.1431082 C49.9953433,37.5799939 49.3175476,37.8464662 48.6062458,37.9108655 L36.757739,39.2631652 C35.8377028,39.3567227 34.9104964,39.3567227 33.9904602,39.2631652 L22.0281096,37.6927526 C21.3446492,37.6219594 20.6860663,37.3982808 20.1015231,37.038414 C19.8037779,36.7766786 20.180338,36.6196373 20.9772442,36.6807089 L29.4980108,37.3961191 C30.4185283,37.4921309 31.3276323,37.6761945 32.2127463,37.9457635 L34.0780323,38.5564796 C34.9382132,38.7889229 35.8450148,38.7889229 36.7051957,38.5564796 L38.5967533,37.9457635 C39.4820787,37.6770251 40.3911021,37.4929778 41.3114888,37.3961191 L49.7008973,36.6894334 C50.4978035,36.5934638 50.8656064,36.8115766 50.559104,37.1431082 Z M51.3333333,44.3294288 C46.0313009,45.054553 40.6924688,45.3873043 35.3514688,45.3255244 C30.2233883,45.3858653 25.0967793,45.096464 20,44.4589213 C20.4010499,44.0154864 20.9170445,43.7260447 21.4738831,43.632162 C22.1008969,43.4683753 22.7397995,43.3683607 23.382828,43.3333333 C23.4084557,43.3449638 23.4371096,43.3449638 23.4627373,43.3333333 L47.9149901,43.3333333 C47.9406178,43.3449638 47.9692717,43.3449638 47.9948994,43.3333333 C48.6486685,43.3462407 49.2998174,43.4296323 49.9393596,43.5823572 C50.4559036,43.6846186 50.9378335,43.9428991 51.3333333,44.3294288 Z M32.6666667,35.6666667 C32.6666667,34.7583333 33.8623656,34 35.3333333,34 C36.8043011,34 38,34.7333333 38,35.6666667 C38,36.6 36.8043011,37.3333333 35.3333333,37.3333333 C33.8623656,37.3333333 32.6666667,36.575 32.6666667,35.6666667 Z M8.66666667,22.3333333 C8.66666667,17.7309604 12.3976271,14 17,14 C21.6023729,14 25.3333333,17.7309604 25.3333333,22.3333333 C25.3333333,26.9357062 21.6023729,30.6666667 17,30.6666667 C14.7898626,30.6666667 12.6702466,29.788693 11.1074435,28.2258898 C9.54464034,26.6630867 8.66666667,24.5434707 8.66666667,22.3333333 Z M14.3845368,42.2819403 L12.6395731,44.8948696 C12.2033321,45.5481019 11.922199,45.4610043 12.0191415,44.7032548 L12.6977385,39.3119108 C12.7946809,38.5541613 13.2503104,38.4409344 13.6671628,39.0941667 L14.2875944,39.9651431 C14.7560707,40.6724149 14.7925852,41.5450628 14.3845368,42.2819403 L14.3845368,42.2819403 Z M14.6666667,32.3624031 L14.6666667,31.3934109 C15.299196,31.5393197 15.94268,31.6204166 16.5888446,31.6356589 C17.9363674,31.6257923 19.2659496,31.2952126 20.4861045,30.6666667 L24.1276617,31.9651163 C24.8595001,32.2267442 24.8330481,32.6143411 24.1276617,32.8081395 L24.0042191,33.2248062 C23.1020637,33.5765274 22.1723034,33.8360252 21.2267602,34 L17.6998282,34 C16.987524,33.8865134 16.2659383,33.8605135 15.5483997,33.9224806 C14.9576386,34.1744186 14.6666667,33.2151163 14.6666667,32.3624031 Z M51.0580154,46.9598109 C50.6030083,46.9598109 42.6053837,48 37.4690536,48 L33.8989979,48 C28.7626678,48 20.7737932,46.9976359 20.310036,46.9598109 C19.8462788,46.9219858 18,46.8652482 18,46.5153664 C18.3370945,46.0592629 18.7647179,45.6908497 19.2512695,45.4373522 C24.5830931,46.1114454 29.9484909,46.4272614 35.31652,46.3829787 C40.8737176,46.4335418 46.4278344,46.0828794 51.9417792,45.3333333 C52.4776973,45.6123381 52.9520968,46.0121664 53.3333333,46.5059102 C53.3593013,46.8652482 51.5480231,46.9125296 51.0580154,46.9598109 Z M55.3333333,32.4072359 C55.3333333,33.2081687 54.8182983,34.1092181 54.3213346,33.9271879 C53.5047962,33.8665426 52.6842242,33.8909425 51.8726592,34 L48.2583782,34 C47.283235,33.8473895 46.3243216,33.6036299 45.3940604,33.2718793 L45.2494892,33.0898491 C44.4814545,32.9078189 44.4633831,32.461845 45.2494892,32.1796982 L49.9119117,30.5960356 C50.77404,30.2572581 51.5120917,29.6599749 52.0262662,28.8849519 L53.0563363,27.1556652 C53.4719786,26.473052 54.0592993,26.509458 54.3755489,27.2375788 L54.6285485,27.5561316 C55.0203576,28.4432684 55.2587192,29.3913459 55.3333333,30.3593964 L55.3333333,32.4072359 L55.3333333,32.4072359 Z M58.027854,44.8887967 L56.3118846,42.2899546 C55.8795978,41.5551821 55.8977213,40.6708023 56.3598167,39.9509967 L56.9733476,39.084716 C57.4334959,38.4523311 57.9319898,38.547622 57.9799219,39.3012862 L58.6509714,44.6635637 C58.7372492,45.4865304 58.459243,45.5385072 58.027854,44.8887967 Z M13.8309172,16.701686 C12.4056904,17.3481524 11.4368603,18.8408026 11.3347718,20.5474293 C11.3109488,20.952785 11.5858466,21.3036151 11.9504876,21.3332182 L11.9504876,21.3332182 C12.2967858,21.3399515 12.5898648,21.0505034 12.6244469,20.6676088 C12.6919028,19.5259569 13.3370925,18.5259569 14.2885438,18.0883723 C14.6055497,17.9162101 14.7493777,17.5015263 14.6183325,17.1375279 C14.4872873,16.7735296 14.1257347,16.5834495 13.7893148,16.701686 L13.8309172,16.701686 Z" id="Shape" fill="#E10A1D"></path>
                    </g>
                </g>
            </g>
        </g>
    </g>
</svg>